<?xml version="1.0" encoding="utf-8"?>
<!-- Generator: Adobe Illustrator 16.0.0, SVG Export Plug-In . SVG Version: 6.00 Build 0)  -->
<!DOCTYPE svg PUBLIC "-//W3C//DTD SVG 1.1//EN" "http://www.w3.org/Graphics/SVG/1.1/DTD/svg11.dtd">
<svg version="1.1" id="Layer_1" xmlns="http://www.w3.org/2000/svg" xmlns:xlink="http://www.w3.org/1999/xlink" x="0px" y="0px"
	 width="118px" height="50px" viewBox="0 0 118 50" enable-background="new 0 0 118 50" xml:space="preserve">
<path fill="#FFFFFF" d="M117.891,35.779c0.35,1.131-0.121,1.85-1.25,1.98l-6.431,0.76c-0.979,0.121-1.739-0.299-1.96-1.221
	l-5.721-22.609c-0.17-0.54-0.609-0.49-0.649,0.07l-0.97,23.401c-0.061,0.959-0.65,1.529-1.62,1.65l-4.649,0.539
	c-0.971,0.121-1.681-0.301-1.951-1.221L86.42,16.58c-0.17-0.54-0.6-0.49-0.65,0.08L85.34,40c0,0.939-0.65,1.52-1.619,1.629
	l-6.431,0.762c-1.14,0.139-1.75-0.461-1.67-1.641L78.2,4.649c0.06-0.96,0.649-1.53,1.62-1.64l7.619-0.9
	C88.41,2,89.07,2.419,89.391,3.33l4.529,13.21c0.17,0.53,0.609,0.48,0.65-0.08l1.41-13.9C96.09,1.6,96.63,1.029,97.6,0.91
	l7.621-0.89c0.979-0.12,1.68,0.3,1.949,1.22L117.891,35.779z"/>
<path fill="#FFFFFF" d="M0.11,14.229c-0.35-1.13,0.12-1.86,1.25-1.99l6.43-0.76c0.98-0.11,1.74,0.3,1.95,1.22l5.73,22.611
	c0.17,0.539,0.6,0.488,0.65-0.07l0.98-23.401c0.05-0.96,0.64-1.53,1.61-1.64l4.65-0.55c0.98-0.12,1.68,0.3,1.95,1.22l6.27,22.55
	c0.17,0.539,0.6,0.49,0.65-0.07l0.43-23.34c0-0.95,0.65-1.53,1.62-1.65l6.43-0.75c1.14-0.13,1.75,0.46,1.67,1.65L39.8,45.35
	c-0.05,0.961-0.65,1.529-1.62,1.641l-7.62,0.9C29.59,48,28.94,47.58,28.61,46.67l-4.53-13.199c-0.17-0.541-0.61-0.49-0.65,0.068
	l-1.41,13.9c-0.11,0.971-0.65,1.531-1.62,1.65l-7.62,0.891C11.8,50.1,11.1,49.68,10.83,48.76L0.11,14.229z"/>
<path fill-rule="evenodd" clip-rule="evenodd" fill="#FFFFFF" d="M45.84,19.569c0.27-3.72,1.77-13.78,14.57-15.28
	c12.811-1.51,12.83,8.37,12.561,12.09l-1.041,14.08C71.65,34.18,70.16,44.24,57.35,45.74c-12.81,1.51-12.83-8.371-12.55-12.09
	L45.84,19.569z M54.31,29.57c-0.32,4.34-0.24,6.959,3.76,6.479c4-0.459,4.459-3.148,4.79-7.479l0.601-8.111
	c0.31-4.34,0.24-6.96-3.76-6.49c-4,0.47-4.47,3.15-4.79,7.49L54.31,29.57z"/>
</svg>
